<svg width="18" height="18" viewBox="0 0 18 18" fill="none" xmlns="http://www.w3.org/2000/svg">
<path d="M4.5 15C4.5 14.6022 4.34196 14.2206 4.06066 13.9393C3.77936 13.658 3.39782 13.5 3 13.5C2.60218 13.5 2.22064 13.658 1.93934 13.9393C1.65804 14.2206 1.5 14.6022 1.5 15C1.5 15.3978 1.65804 15.7794 1.93934 16.0607C2.22064 16.342 2.60218 16.5 3 16.5C3.39782 16.5 3.77936 16.342 4.06066 16.0607C4.34196 15.7794 4.5 15.3978 4.5 15Z" stroke="#95C6B4" stroke-width="1.125" stroke-linecap="round" stroke-linejoin="round"/>
<path d="M12 3C12 2.60218 11.842 2.22064 11.5607 1.93934C11.2794 1.65804 10.8978 1.5 10.5 1.5C10.1022 1.5 9.72064 1.65804 9.43934 1.93934C9.15804 2.22064 9 2.60218 9 3C9 3.39782 9.15804 3.77936 9.43934 4.06066C9.72064 4.34196 10.1022 4.5 10.5 4.5C10.8978 4.5 11.2794 4.34196 11.5607 4.06066C11.842 3.77936 12 3.39782 12 3Z" stroke="#95C6B4" stroke-width="1.125" stroke-linecap="round" stroke-linejoin="round"/>
<path d="M12 15C12 14.6022 11.842 14.2206 11.5607 13.9393C11.2794 13.658 10.8978 13.5 10.5 13.5C10.1022 13.5 9.72064 13.658 9.43934 13.9393C9.15804 14.2206 9 14.6022 9 15C9 15.3978 9.15804 15.7794 9.43934 16.0607C9.72064 16.342 10.1022 16.5 10.5 16.5C10.8978 16.5 11.2794 16.342 11.5607 16.0607C11.842 15.7794 12 15.3978 12 15Z" stroke="#95C6B4" stroke-width="1.125" stroke-linecap="round" stroke-linejoin="round"/>
<path d="M8.25 9C8.25 8.60218 8.09196 8.22064 7.81066 7.93934C7.52936 7.65804 7.14782 7.5 6.75 7.5C6.35218 7.5 5.97064 7.65804 5.68934 7.93934C5.40804 8.22064 5.25 8.60218 5.25 9C5.25 9.39782 5.40804 9.77936 5.68934 10.0607C5.97064 10.342 6.35218 10.5 6.75 10.5C7.14782 10.5 7.52936 10.342 7.81066 10.0607C8.09196 9.77936 8.25 9.39782 8.25 9Z" stroke="#95C6B4" stroke-width="1.125" stroke-linecap="round" stroke-linejoin="round"/>
<path d="M15.75 9C15.75 8.60218 15.592 8.22064 15.3107 7.93934C15.0294 7.65804 14.6478 7.5 14.25 7.5C13.8522 7.5 13.4706 7.65804 13.1893 7.93934C12.908 8.22064 12.75 8.60218 12.75 9C12.75 9.39782 12.908 9.77936 13.1893 10.0607C13.4706 10.342 13.8522 10.5 14.25 10.5C14.6478 10.5 15.0294 10.342 15.3107 10.0607C15.592 9.77936 15.75 9.39782 15.75 9Z" stroke="#95C6B4" stroke-width="1.125" stroke-linecap="round" stroke-linejoin="round"/>
<path d="M3.79395 13.7299L5.95395 10.2754" stroke="#95C6B4" stroke-width="1.125" stroke-linecap="round" stroke-linejoin="round"/>
<path d="M7.5459 7.72741L9.70365 4.27441" stroke="#95C6B4" stroke-width="1.125" stroke-linecap="round" stroke-linejoin="round"/>
<path d="M7.54883 10.2783L9.70583 13.7283" stroke="#95C6B4" stroke-width="1.125" stroke-linecap="round" stroke-linejoin="round"/>
<path d="M11.2969 4.27539L13.4576 7.73289" stroke="#95C6B4" stroke-width="1.125" stroke-linecap="round" stroke-linejoin="round"/>
</svg>
