<svg width="18" height="18" viewBox="0 0 18 18" fill="none" xmlns="http://www.w3.org/2000/svg">
<path d="M11.25 6H11.2575" stroke="#95C6B4" stroke-width="1.125" stroke-linecap="round" stroke-linejoin="round"/>
<path d="M2.25 4.5C2.25 3.90326 2.48705 3.33097 2.90901 2.90901C3.33097 2.48705 3.90326 2.25 4.5 2.25H13.5C14.0967 2.25 14.669 2.48705 15.091 2.90901C15.5129 3.33097 15.75 3.90326 15.75 4.5V13.5C15.75 14.0967 15.5129 14.669 15.091 15.091C14.669 15.5129 14.0967 15.75 13.5 15.75H4.5C3.90326 15.75 3.33097 15.5129 2.90901 15.091C2.48705 14.669 2.25 14.0967 2.25 13.5V4.5Z" stroke="#95C6B4" stroke-width="1.125" stroke-linecap="round" stroke-linejoin="round"/>
<path d="M2.25 12.0004L6 8.25036C6.696 7.58061 7.554 7.58061 8.25 8.25036L12 12.0004" stroke="#95C6B4" stroke-width="1.125" stroke-linecap="round" stroke-linejoin="round"/>
<path d="M10.5 10.5004L11.25 9.75036C11.946 9.08061 12.804 9.08061 13.5 9.75036L15.75 12.0004" stroke="#95C6B4" stroke-width="1.125" stroke-linecap="round" stroke-linejoin="round"/>
</svg>
