<svg width="18" height="18" viewBox="0 0 18 18" fill="none" xmlns="http://www.w3.org/2000/svg">
<path d="M9.375 15.75H4.5C4.10218 15.75 3.72064 15.592 3.43934 15.3107C3.15804 15.0294 3 14.6478 3 14.25V5.25C3 4.85218 3.15804 4.47064 3.43934 4.18934C3.72064 3.90804 4.10218 3.75 4.5 3.75H13.5C13.8978 3.75 14.2794 3.90804 14.5607 4.18934C14.842 4.47064 15 4.85218 15 5.25V8.25" stroke="#95C6B4" stroke-width="1.125" stroke-linecap="round" stroke-linejoin="round"/>
<path d="M12 2.25V5.25" stroke="#95C6B4" stroke-width="1.125" stroke-linecap="round" stroke-linejoin="round"/>
<path d="M15.8408 15.0912C16.1555 14.7766 16.3698 14.3757 16.4567 13.9392C16.5436 13.5027 16.4991 13.0503 16.3288 12.6391C16.1585 12.2279 15.8701 11.8765 15.5001 11.6292C15.1301 11.382 14.695 11.25 14.25 11.25C13.805 11.25 13.3699 11.382 12.9999 11.6292C12.6299 11.8765 12.3415 12.2279 12.1712 12.6391C12.0009 13.0503 11.9564 13.5027 12.0433 13.9392C12.1302 14.3757 12.3445 14.7766 12.6593 15.0912C12.9728 15.4055 13.503 15.875 14.25 16.5005C15.0383 15.833 15.5693 15.3635 15.8408 15.0912Z" stroke="#95C6B4" stroke-width="1.125" stroke-linecap="round" stroke-linejoin="round"/>
<path d="M14.25 13.5V13.5075" stroke="#95C6B4" stroke-width="1.125" stroke-linecap="round" stroke-linejoin="round"/>
<path d="M6 2.25V5.25" stroke="#95C6B4" stroke-width="1.125" stroke-linecap="round" stroke-linejoin="round"/>
<path d="M3 8.25H15" stroke="#95C6B4" stroke-width="1.125" stroke-linecap="round" stroke-linejoin="round"/>
</svg>
