<svg width="18" height="18" viewBox="0 0 18 18" fill="none" xmlns="http://www.w3.org/2000/svg">
<path d="M7.5 15C7.5 15.3978 7.65804 15.7794 7.93934 16.0607C8.22064 16.342 8.60218 16.5 9 16.5C9.39782 16.5 9.77936 16.342 10.0607 16.0607C10.342 15.7794 10.5 15.3978 10.5 15C10.5 14.6022 10.342 14.2206 10.0607 13.9393C9.77936 13.658 9.39782 13.5 9 13.5C8.60218 13.5 8.22064 13.658 7.93934 13.9393C7.65804 14.2206 7.5 14.6022 7.5 15Z" stroke="#95C6B4" stroke-width="1.125" stroke-linecap="round" stroke-linejoin="round"/>
<path d="M7.5 15H3" stroke="#95C6B4" stroke-width="1.125" stroke-linecap="round" stroke-linejoin="round"/>
<path d="M10.5 15H15" stroke="#95C6B4" stroke-width="1.125" stroke-linecap="round" stroke-linejoin="round"/>
<path d="M9 11.25L7.5 9.75H5.25C5.05109 9.75 4.86032 9.67098 4.71967 9.53033C4.57902 9.38968 4.5 9.19891 4.5 9V3C4.5 2.80109 4.57902 2.61032 4.71967 2.46967C4.86032 2.32902 5.05109 2.25 5.25 2.25H12.75C12.9489 2.25 13.1397 2.32902 13.2803 2.46967C13.421 2.61032 13.5 2.80109 13.5 3V9C13.5 9.19891 13.421 9.38968 13.2803 9.53033C13.1397 9.67098 12.9489 9.75 12.75 9.75H10.5L9 11.25Z" stroke="#95C6B4" stroke-width="1.125" stroke-linecap="round" stroke-linejoin="round"/>
</svg>
